<svg xmlns="http://www.w3.org/2000/svg" fill="none" viewBox="0 0 212 40"><path fill="#FECD2F" d="m20 1.718 16.148 34.166H3.851L20 1.718Z"/><path fill="url(#a)" fill-rule="evenodd" d="M10.46 31.767h19.08L20 11.584l-9.54 20.183ZM0 34.167 16.149 0h7.702L40 34.166 36.149 40H3.85L0 34.166Z" clip-rule="evenodd"/><path fill="#000" d="m56.36 28 9.96-22.95h.24L76.52 28h-5.04l-6.36-16.14 3.15-2.16L60.65 28h-4.29Zm6.81-7.98h6.63l1.53 3.66h-9.51l1.35-3.66ZM79.049 4.33h4.2V28h-4.2V4.33Zm12.755 24.3c-1.18 0-2.17-.36-2.97-1.08-.8-.74-1.22-1.69-1.26-2.85v-9.81h4.2v8.25c.04.58.19 1.05.45 1.41.26.34.7.51 1.32.51.62 0 1.15-.21 1.59-.63.46-.42.81-.99 1.05-1.71.26-.74.39-1.57.39-2.49v-5.34h4.2V28h-3.81l-.33-2.4.06.27c-.3.54-.68 1.02-1.14 1.44-.46.42-1.01.74-1.65.96-.62.24-1.32.36-2.1.36Zm17.07-13.74.39 3.6-.09-.54c.38-.78.9-1.44 1.56-1.98.66-.56 1.31-.99 1.95-1.29.66-.3 1.16-.45 1.5-.45l-.21 4.2c-.98-.12-1.82.04-2.52.48s-1.24 1.02-1.62 1.74c-.38.72-.57 1.46-.57 2.22V28h-4.17V14.89h3.78Zm13.605 13.47c-1.22 0-2.33-.24-3.33-.72-.98-.5-1.76-1.26-2.34-2.28-.58-1.02-.87-2.32-.87-3.9 0-1.48.3-2.76.9-3.84.6-1.08 1.39-1.91 2.37-2.49.98-.6 2.02-.9 3.12-.9 1.3 0 2.28.22 2.94.66.68.42 1.24.89 1.68 1.41l-.18.51.39-1.92h3.9V28h-4.2v-2.85l.33.9c-.04 0-.16.12-.36.36-.2.22-.5.49-.9.81-.38.3-.86.56-1.44.78-.56.24-1.23.36-2.01.36Zm1.2-3.42c.5 0 .95-.07 1.35-.21.4-.16.75-.38 1.05-.66.3-.3.56-.67.78-1.11v-3.21c-.16-.44-.4-.81-.72-1.11-.32-.32-.7-.56-1.14-.72-.44-.18-.93-.27-1.47-.27-.6 0-1.16.16-1.68.48-.5.3-.9.72-1.2 1.26-.3.54-.45 1.16-.45 1.86 0 .7.16 1.33.48 1.89.32.56.74 1 1.26 1.32.54.32 1.12.48 1.74.48Zm18.248-18.63c2.18 0 3.89.45 5.13 1.35 1.26.88 1.89 2.26 1.89 4.14 0 1.14-.26 2.13-.78 2.97-.52.84-1.25 1.5-2.19 1.98-.92.48-2.01.75-3.27.81l-.42-1.5c1.46.04 2.77.3 3.93.78 1.16.48 2.08 1.15 2.76 2.01.68.86 1.02 1.88 1.02 3.06 0 1.08-.2 2.01-.6 2.79-.4.76-.94 1.39-1.62 1.89-.68.48-1.45.84-2.31 1.08-.86.22-1.75.33-2.67.33h-6.45V6.31h5.58Zm.6 9.51c1.2 0 2.07-.33 2.61-.99.54-.68.81-1.5.81-2.46 0-1.14-.35-1.97-1.05-2.49-.7-.52-1.64-.78-2.82-.78h-2.82v6.72h3.27Zm.12 9.48c.8 0 1.53-.12 2.19-.36.68-.24 1.21-.61 1.59-1.11.4-.5.6-1.13.6-1.89 0-.84-.23-1.5-.69-1.98-.44-.48-1.01-.82-1.71-1.02-.7-.22-1.42-.33-2.16-.33h-3.21v6.69h3.39Zm10.474-3.63c0-1.24.29-2.36.87-3.36.6-1 1.42-1.79 2.46-2.37 1.04-.58 2.22-.87 3.54-.87 1.36 0 2.55.29 3.57.87 1.02.58 1.81 1.37 2.37 2.37s.84 2.12.84 3.36c0 1.24-.28 2.37-.84 3.39-.56 1-1.36 1.79-2.4 2.37-1.02.58-2.21.87-3.57.87-1.32 0-2.5-.27-3.54-.81a6.422 6.422 0 0 1-2.43-2.31c-.58-1-.87-2.17-.87-3.51Zm2.79.03c0 .8.18 1.53.54 2.19.36.64.84 1.15 1.44 1.53.62.38 1.3.57 2.04.57.78 0 1.47-.19 2.07-.57.62-.38 1.1-.89 1.44-1.53.34-.66.51-1.39.51-2.19s-.17-1.52-.51-2.16c-.34-.66-.82-1.18-1.44-1.56-.6-.4-1.29-.6-2.07-.6-.76 0-1.45.2-2.07.6-.6.4-1.08.93-1.44 1.59-.34.64-.51 1.35-.51 2.13Zm13.558-.03c0-1.24.29-2.36.87-3.36.6-1 1.42-1.79 2.46-2.37 1.04-.58 2.22-.87 3.54-.87 1.36 0 2.55.29 3.57.87 1.02.58 1.81 1.37 2.37 2.37s.84 2.12.84 3.36c0 1.24-.28 2.37-.84 3.39-.56 1-1.36 1.79-2.4 2.37-1.02.58-2.21.87-3.57.87-1.32 0-2.5-.27-3.54-.81a6.422 6.422 0 0 1-2.43-2.31c-.58-1-.87-2.17-.87-3.51Zm2.79.03c0 .8.18 1.53.54 2.19.36.64.84 1.15 1.44 1.53.62.38 1.3.57 2.04.57.78 0 1.47-.19 2.07-.57.62-.38 1.1-.89 1.44-1.53.34-.66.51-1.39.51-2.19s-.17-1.52-.51-2.16c-.34-.66-.82-1.18-1.44-1.56-.6-.4-1.29-.6-2.07-.6-.76 0-1.45.2-2.07.6-.6.4-1.08.93-1.44 1.59-.34.64-.51 1.35-.51 2.13Zm14.638 6.3V4.78h2.79V28h-2.79Zm5.79-8.25 5.7 8.25h-3.27l-4.29-6.69 1.86-1.56Zm-3.87 4.29-.27-2.67 7.53-6.06 1.71 1.47-8.97 7.26Zm16.501 4.2c-.88 0-1.74-.15-2.58-.45-.82-.32-1.5-.79-2.04-1.41l1.17-1.62c.52.5 1.05.88 1.59 1.14.56.24 1.11.36 1.65.36.4 0 .77-.05 1.11-.15.34-.1.61-.26.81-.48.22-.24.33-.56.33-.96 0-.44-.15-.79-.45-1.05-.28-.26-.65-.47-1.11-.63-.44-.16-.91-.31-1.41-.45-1.02-.34-1.8-.81-2.34-1.41-.54-.6-.81-1.33-.81-2.19 0-.66.16-1.27.48-1.83.34-.58.83-1.05 1.47-1.41.66-.36 1.47-.54 2.43-.54.86 0 1.63.11 2.31.33.68.2 1.32.54 1.92 1.02l-1.11 1.74c-.36-.38-.79-.66-1.29-.84-.5-.18-.95-.28-1.35-.3-.34-.02-.67.03-.99.15-.3.12-.55.29-.75.51-.2.22-.3.48-.3.78 0 .42.14.76.42 1.02.28.26.64.47 1.08.63.46.14.91.29 1.35.45.62.18 1.17.42 1.65.72s.86.67 1.14 1.11c.3.44.45.99.45 1.65 0 .74-.18 1.43-.54 2.07-.34.62-.87 1.12-1.59 1.5-.7.36-1.6.54-2.7.54Z"/><defs><linearGradient id="a" x1="20" x2="20" y1="0" y2="40" gradientUnits="userSpaceOnUse"><stop offset=".677" stop-color="#FD8325"/><stop offset="1" stop-color="#FC6621"/></linearGradient></defs></svg>
